<svg xmlns="http://www.w3.org/2000/svg" viewBox="98 120 1977 505" role="img" aria-label="Joliba — Le service qui coule de source."><title>Joliba — Le service qui coule de source.</title><path fill="#000000" fill-rule="evenodd" d="M1322.4 600.1C1322.2 599.9 1322.0 594.7 1322.0 588.7L1322.0 577.8L1319.7 579.3C1309.8 585.8 1294.6 582.0 1288.5 571.5C1282.1 560.8 1285.4 545.9 1295.6 539.0C1300.9 535.4 1312.4 534.9 1317.5 537.9C1321.8 540.4 1322.0 540.4 1322.0 538.5C1322.0 537.3 1323.3 537.0 1327.5 537.0L1333.0 537.0L1332.8 568.8L1332.5 600.5L1327.7 600.5C1325.0 600.5 1322.6 600.3 1322.4 600.1ZM928.1 581.8C919.0 580.2 912.9 573.8 910.8 563.6C908.6 553.5 913.4 542.8 922.1 538.3C927.0 535.6 937.1 535.2 942.3 537.4C949.8 540.5 955.4 549.3 955.5 558.0L955.5 563.5L938.8 563.5C929.7 563.5 921.9 563.8 921.5 564.2C921.1 564.5 922.3 566.5 924.2 568.5C928.8 573.6 934.2 574.3 940.4 570.6L945.0 567.9L948.5 570.7L951.9 573.5L949.2 576.3C944.7 581.1 936.5 583.3 928.1 581.8ZM990.7 581.6C986.6 580.1 983.4 577.6 981.9 574.9C981.3 573.6 981.9 572.7 984.8 570.7L988.6 568.3L991.5 570.6C997.1 575.1 1007.6 572.4 1004.4 567.2C1003.8 566.3 999.9 564.3 995.7 562.9C991.4 561.5 987.1 559.5 986.0 558.5C983.3 556.1 982.0 550.9 983.0 546.5C984.6 539.6 989.8 536.0 998.5 536.0C1004.6 536.0 1008.2 537.4 1011.8 541.2C1013.9 543.5 1013.9 543.7 1012.3 545.2C1008.4 548.6 1006.9 548.8 1003.1 546.7C998.8 544.3 994.5 544.9 993.5 548.1C992.5 551.1 994.4 552.6 1001.9 554.9C1010.7 557.6 1015.0 562.0 1015.0 568.3C1015.0 573.5 1012.2 578.3 1007.9 580.5C1003.5 582.8 995.3 583.3 990.7 581.6ZM1035.5 581.6C1026.7 579.1 1019.0 569.0 1019.0 559.7C1019.0 550.9 1024.5 541.8 1032.1 538.0C1037.4 535.2 1046.9 535.3 1052.7 538.1C1060.4 541.8 1065.0 549.6 1065.0 558.8L1065.0 562.9L1059.4 563.6C1056.4 563.9 1048.9 564.0 1042.9 563.8C1036.8 563.5 1031.7 563.7 1031.4 564.2C1030.4 565.8 1034.1 570.1 1037.7 571.6C1042.0 573.4 1047.9 572.7 1051.5 569.9L1054.0 567.9L1057.5 570.6C1059.4 572.0 1061.0 573.6 1061.0 573.9C1061.0 575.3 1056.5 578.9 1053.0 580.4C1047.5 582.6 1041.0 583.1 1035.5 581.6ZM1231.9 582.1C1224.6 580.6 1217.2 574.3 1215.0 567.4C1214.3 565.4 1214.0 560.8 1214.2 557.0C1214.6 548.9 1218.0 543.3 1224.8 538.9C1230.7 535.2 1235.7 534.5 1242.5 536.4C1252.7 539.4 1259.0 547.4 1259.0 557.4L1259.0 562.8L1252.4 563.5C1248.8 563.9 1241.3 564.0 1235.9 563.8C1230.4 563.5 1225.7 563.7 1225.4 564.2C1224.5 565.6 1227.8 569.8 1231.2 571.6C1235.1 573.6 1241.2 573.0 1245.2 570.0C1248.3 567.7 1250.0 568.1 1253.4 571.9C1255.3 574.0 1255.3 574.1 1253.0 576.5C1249.0 580.7 1238.9 583.4 1231.9 582.1ZM1485.2 581.1C1474.9 577.5 1470.1 570.2 1470.0 558.4C1470.0 552.2 1470.4 550.8 1473.0 546.8C1480.9 534.9 1495.7 531.9 1506.9 540.0C1518.0 548.1 1519.2 566.9 1509.4 576.2C1503.1 582.0 1493.4 584.0 1485.2 581.1ZM1536.6 581.8C1530.6 580.5 1526.4 577.4 1524.1 572.6C1522.2 568.9 1522.0 566.5 1522.0 552.7L1522.0 537.0L1526.9 537.0L1531.9 537.0L1532.2 551.9C1532.5 566.0 1532.6 567.0 1534.9 569.4C1538.1 572.8 1542.1 573.5 1546.6 571.4C1552.0 568.8 1553.0 565.4 1553.0 550.0L1553.0 537.0L1558.0 537.0L1563.0 537.0L1563.0 559.0L1563.0 581.0L1558.0 581.0C1554.3 581.0 1553.0 580.6 1553.0 579.5C1553.0 578.3 1552.4 578.4 1549.8 579.9C1545.5 582.3 1541.4 582.9 1536.6 581.8ZM1603.9 581.7C1587.6 577.1 1581.7 556.5 1593.0 543.7C1598.1 537.9 1602.3 536.0 1609.9 536.0C1623.2 536.0 1632.9 545.7 1633.0 558.8L1633.0 564.1L1617.2 563.6C1608.6 563.3 1600.9 563.4 1600.1 563.9C1596.8 566.0 1604.8 573.0 1610.6 573.0C1612.3 573.0 1615.4 571.9 1617.4 570.5C1619.4 569.1 1621.4 568.0 1621.8 568.0C1622.2 568.1 1624.0 569.4 1625.9 571.0C1629.3 573.9 1629.3 574.0 1627.5 575.9C1622.8 581.1 1611.7 583.8 1603.9 581.7ZM1727.8 581.6C1715.0 578.1 1708.1 564.5 1712.2 550.8C1712.9 548.5 1715.3 544.9 1717.8 542.4C1732.1 528.0 1756.0 537.7 1756.0 557.9L1756.0 562.8L1752.2 563.3C1750.2 563.5 1742.9 563.8 1736.0 564.0C1729.1 564.1 1723.3 564.3 1723.1 564.6C1722.2 565.4 1726.2 570.1 1729.2 571.6C1733.0 573.6 1738.3 572.9 1742.2 570.0C1745.3 567.7 1747.0 568.1 1750.4 571.9C1752.3 574.0 1752.3 574.0 1750.4 576.1C1746.0 581.1 1735.4 583.7 1727.8 581.6ZM1791.1 581.5C1787.1 580.2 1781.0 575.6 1781.0 573.8C1781.0 573.4 1782.6 572.0 1784.7 570.6L1788.3 568.1L1791.2 570.5C1795.7 574.3 1804.0 573.4 1804.0 569.1C1804.0 566.5 1802.2 565.3 1794.9 562.9C1787.9 560.6 1785.5 558.9 1783.4 554.8C1780.4 549.1 1782.8 541.5 1788.7 537.9C1793.8 534.7 1804.3 535.5 1809.4 539.3C1813.8 542.7 1813.9 544.0 1810.0 546.8C1806.4 549.5 1806.4 549.5 1803.3 547.0C1798.7 543.4 1793.0 544.8 1793.0 549.7C1793.0 552.3 1794.6 553.3 1801.9 555.0C1808.1 556.5 1813.6 560.8 1814.5 565.0C1816.1 572.1 1811.0 579.9 1803.5 581.9C1798.5 583.3 1796.6 583.2 1791.1 581.5ZM1835.9 581.6C1825.0 577.7 1819.8 571.0 1819.2 560.0C1818.8 553.1 1819.9 549.6 1824.2 544.1C1836.6 528.2 1863.6 536.1 1865.7 556.3C1866.9 567.9 1860.0 578.1 1848.9 581.4C1842.6 583.3 1840.7 583.3 1835.9 581.6ZM1963.7 581.4C1954.0 578.3 1947.3 568.3 1947.8 557.4C1948.3 544.9 1958.0 536.0 1971.2 536.0C1976.4 536.0 1978.4 536.6 1982.8 539.0C1985.6 540.7 1988.0 542.3 1988.0 542.7C1988.0 543.1 1986.6 544.9 1984.9 546.6L1981.8 549.8L1978.6 547.9C1974.0 545.1 1966.9 545.3 1963.1 548.5C1950.1 559.5 1966.0 580.5 1979.3 570.0C1981.7 568.1 1981.7 568.1 1985.0 571.5C1988.8 575.5 1988.4 576.8 1981.7 580.1C1976.5 582.8 1969.6 583.3 1963.7 581.4ZM2010.0 582.1C1998.7 579.8 1991.8 571.2 1991.7 559.5C1991.6 545.5 2000.7 536.1 2014.3 536.0C2021.4 536.0 2025.6 537.7 2030.3 542.5C2034.8 547.1 2037.2 553.3 2036.8 559.1L2036.5 563.5L2020.2 563.7C2011.2 563.8 2003.6 564.1 2003.3 564.4C2002.3 565.4 2006.0 569.9 2009.2 571.6C2013.1 573.6 2018.8 573.0 2022.8 570.1L2025.8 568.0L2029.4 570.9L2033.0 573.8L2028.9 577.3C2025.4 580.4 2017.3 583.4 2014.2 582.9C2013.8 582.8 2011.9 582.5 2010.0 582.1ZM868.7 581.3C868.3 581.0 868.0 566.3 868.0 548.8L868.0 517.0L873.5 517.0L879.0 517.0L879.0 544.0L879.0 571.0L888.8 571.0C894.1 571.0 900.2 571.3 902.2 571.6C906.0 572.3 906.0 572.3 906.0 577.1L906.0 582.0L887.7 582.0C877.6 582.0 869.0 581.7 868.7 581.3ZM1119.6 581.2C1118.2 580.6 1114.9 573.7 1108.8 559.0C1104.0 547.3 1100.0 537.5 1100.0 537.3C1100.0 537.1 1102.5 537.0 1105.6 537.2L1111.2 537.5L1117.4 552.7C1120.7 561.0 1123.8 567.6 1124.2 567.2C1124.6 566.8 1127.5 559.9 1130.7 552.0L1136.5 537.5L1142.2 537.2L1147.9 536.9L1139.3 558.2C1134.7 569.9 1130.5 579.9 1130.0 580.3C1128.9 581.5 1121.8 582.1 1119.6 581.2ZM1182.5 580.3C1174.3 576.0 1169.9 568.6 1169.9 559.0C1169.8 545.4 1179.1 536.0 1192.5 536.0C1198.6 536.0 1204.2 537.9 1207.8 541.2L1210.0 543.4L1206.8 546.7L1203.7 550.0L1200.5 548.0C1193.9 543.9 1184.3 546.7 1181.4 553.5C1179.5 558.1 1179.6 561.4 1182.0 565.9C1185.5 572.9 1194.2 574.8 1200.9 570.1L1203.7 568.1L1207.0 571.5C1210.9 575.5 1210.4 576.7 1203.6 579.9C1198.3 582.5 1187.0 582.7 1182.5 580.3ZM1349.6 579.7C1341.5 575.1 1340.1 570.7 1340.0 550.8L1340.0 537.2L1345.1 536.8C1347.9 536.7 1350.4 536.7 1350.6 536.9C1350.8 537.1 1351.0 543.6 1351.0 551.2C1351.0 567.6 1351.9 570.3 1357.9 572.1C1361.3 573.1 1362.3 573.0 1365.2 571.3C1370.3 568.3 1371.0 566.1 1371.0 550.8L1371.0 537.0L1376.5 537.0L1382.0 537.0L1382.0 559.5L1382.0 582.0L1378.6 582.0C1374.3 582.0 1372.0 581.1 1372.0 579.5C1372.0 578.6 1371.0 578.7 1368.3 580.1C1363.0 582.8 1354.6 582.6 1349.6 579.7ZM1390.0 559.5L1390.0 537.0L1395.0 537.0L1400.0 537.0L1400.0 559.5L1400.0 582.0L1395.0 582.0L1390.0 582.0L1390.0 559.5ZM1440.5 580.4C1432.2 576.1 1427.8 568.4 1427.8 558.4C1427.9 551.8 1429.2 548.3 1433.6 543.1C1437.8 538.1 1442.9 536.0 1450.7 536.0C1457.7 536.0 1461.6 537.4 1465.7 541.2L1467.8 543.2L1464.3 546.3C1460.9 549.3 1460.8 549.3 1458.0 547.7C1456.5 546.8 1453.1 546.0 1450.6 546.0C1439.3 546.0 1433.7 560.8 1441.9 569.1C1446.0 573.1 1450.8 573.7 1456.6 571.0L1461.2 568.7L1464.3 571.8C1467.3 574.8 1467.3 575.0 1465.6 576.9C1464.6 578.0 1462.3 579.6 1460.5 580.4C1456.1 582.5 1444.5 582.5 1440.5 580.4ZM1670.4 580.1C1655.5 573.3 1653.4 550.6 1666.8 540.3C1673.9 534.9 1684.7 534.1 1691.6 538.6L1694.0 540.2L1694.0 528.6L1694.0 517.0L1699.5 517.0L1705.0 517.0L1705.0 548.9C1705.0 569.9 1704.6 581.1 1704.0 581.5C1702.2 582.6 1695.0 580.9 1695.0 579.4C1695.0 577.6 1695.2 577.6 1690.5 580.0C1685.4 582.6 1676.0 582.7 1670.4 580.1ZM1880.2 579.4C1873.0 575.1 1872.0 571.8 1872.0 553.0L1872.0 537.0L1877.0 537.0L1882.0 537.0L1882.0 551.0C1882.0 559.3 1882.5 565.9 1883.1 567.4C1884.6 570.6 1890.3 573.4 1893.7 572.5C1901.5 570.6 1903.0 566.8 1903.0 549.2L1903.0 537.0L1908.0 537.0L1913.0 537.0L1912.8 559.2L1912.5 581.5L1908.5 581.8C1905.7 582.1 1904.2 581.7 1903.4 580.5C1902.3 579.0 1901.9 579.0 1899.1 580.4C1894.3 582.9 1885.3 582.5 1880.2 579.4ZM1921.0 559.5L1921.0 537.0L1926.0 537.0C1930.3 537.0 1931.0 537.3 1931.0 539.0C1931.0 540.8 1931.2 540.8 1934.6 538.5C1938.4 535.9 1945.3 535.1 1946.5 537.0C1946.9 537.6 1946.9 539.8 1946.5 541.9C1945.9 545.5 1945.6 545.8 1941.9 546.3C1933.3 547.4 1931.0 552.3 1931.0 569.5L1931.0 582.0L1926.0 582.0L1921.0 582.0L1921.0 559.5ZM2041.2 580.4C2036.7 577.3 2039.5 570.0 2045.3 570.0C2048.1 570.0 2051.0 573.2 2051.0 576.2C2051.0 578.5 2047.5 582.0 2045.2 582.0C2044.2 582.0 2042.4 581.3 2041.2 580.4ZM1071.0 559.0L1071.0 537.0L1076.0 537.0C1079.5 537.0 1081.2 537.5 1081.6 538.4C1082.1 539.6 1082.7 539.5 1085.3 537.9C1087.2 536.8 1090.3 536.0 1092.8 536.0L1097.2 536.0L1096.5 540.2C1095.6 545.8 1095.7 545.6 1091.2 546.3C1086.8 547.1 1083.4 550.3 1082.0 555.1C1081.4 557.0 1081.0 563.6 1081.0 569.7L1081.0 581.0L1076.0 581.0L1071.0 581.0L1071.0 559.0ZM1153.0 559.0L1153.0 537.0L1158.0 537.0L1163.0 537.0L1163.0 559.0L1163.0 581.0L1158.0 581.0L1153.0 581.0L1153.0 559.0ZM1571.0 549.0L1571.0 517.0L1576.0 517.0L1581.0 517.0L1581.0 549.0L1581.0 581.0L1576.0 581.0L1571.0 581.0L1571.0 549.0ZM1314.0 571.5C1320.9 567.9 1323.4 560.9 1320.2 553.7C1314.4 540.6 1296.0 544.8 1296.0 559.2C1296.0 569.2 1305.6 575.8 1314.0 571.5ZM1499.6 570.5C1505.1 566.9 1507.5 558.7 1504.6 553.1C1499.9 544.0 1485.8 543.6 1481.6 552.4C1475.6 565.1 1488.3 577.9 1499.6 570.5ZM1688.3 570.5C1696.3 564.9 1695.5 551.7 1687.0 547.2C1683.3 545.3 1675.5 546.2 1672.5 549.0C1665.5 555.6 1667.6 567.7 1676.4 571.6C1679.8 573.1 1685.3 572.6 1688.3 570.5ZM1847.9 571.2C1854.3 567.8 1857.0 558.2 1853.4 552.0C1848.1 543.1 1833.9 544.4 1830.2 554.2C1827.6 561.0 1830.8 568.7 1837.4 571.6C1841.6 573.4 1843.9 573.3 1847.9 571.2ZM944.5 554.0C944.9 553.4 943.6 551.4 941.7 549.5C938.6 546.4 937.6 546.0 933.0 546.0C928.6 546.0 927.4 546.4 924.9 548.9C919.6 554.2 920.6 555.0 932.9 555.0C939.3 555.0 944.1 554.6 944.5 554.0ZM1053.8 553.1C1054.4 551.3 1049.4 547.2 1045.3 546.0C1041.9 544.9 1040.7 545.0 1037.6 546.5C1033.8 548.3 1030.4 552.2 1031.3 553.7C1032.0 554.9 1053.4 554.3 1053.8 553.1ZM1245.8 554.4C1248.8 553.6 1248.6 552.3 1244.9 548.9C1242.3 546.5 1241.0 546.0 1236.5 546.0C1231.6 546.0 1230.9 546.3 1227.9 549.8L1224.6 553.5L1232.6 554.1C1236.9 554.4 1241.2 554.7 1242.0 554.8C1242.8 554.9 1244.5 554.7 1245.8 554.4ZM1621.6 553.9C1622.6 552.3 1615.9 546.2 1612.5 545.6C1608.3 544.8 1602.9 546.9 1600.6 550.1C1597.4 554.7 1598.1 555.1 1610.1 554.9C1616.1 554.7 1621.3 554.3 1621.6 553.9ZM1736.2 554.1C1741.9 554.0 1745.0 553.6 1745.0 552.9C1745.0 550.8 1739.1 546.2 1735.8 545.7C1730.3 544.9 1723.0 549.1 1723.0 553.0C1723.0 554.2 1723.7 554.7 1725.2 554.5C1726.5 554.4 1731.4 554.2 1736.2 554.1ZM2025.3 554.4C2025.6 554.0 2025.3 552.6 2024.5 551.1C2023.3 548.6 2020.9 547.0 2016.6 545.6C2013.6 544.6 2007.3 546.8 2005.1 549.7C2001.2 554.5 2002.0 555.0 2013.8 555.0C2019.8 555.0 2024.9 554.7 2025.3 554.4ZM1154.0 528.0C1151.5 525.5 1151.4 521.8 1153.8 519.7C1157.9 516.0 1164.8 519.6 1163.5 524.8C1162.3 530.0 1157.5 531.5 1154.0 528.0ZM1391.0 528.0C1388.6 525.6 1388.5 523.2 1390.6 520.2C1392.7 517.1 1397.5 517.2 1399.5 520.4C1403.5 526.5 1396.1 533.1 1391.0 528.0ZM463.5 488.7C438.9 483.5 424.8 477.5 390.0 457.3C373.1 447.5 356.0 440.3 340.5 436.4C328.6 433.4 304.8 432.2 290.5 433.8C275.7 435.5 267.1 433.2 259.4 425.4C249.0 415.0 249.2 395.8 259.8 384.6C267.5 376.5 278.8 373.4 304.0 372.3C340.1 370.8 370.6 379.7 409.5 403.0C445.7 424.6 464.2 431.6 489.0 432.7C521.4 434.2 550.8 424.0 594.1 396.5C611.8 385.2 642.9 373.6 663.8 370.5C675.1 368.8 698.0 368.6 709.7 370.0C733.3 373.0 755.3 383.1 778.5 401.7C784.3 406.3 784.4 406.3 781.3 402.7C770.3 390.0 748.8 376.2 728.8 368.9C720.3 365.8 707.8 362.6 698.0 361.0C685.7 358.9 656.9 358.7 639.0 360.5C629.9 361.4 612.7 362.4 600.7 362.7C533.7 364.4 489.4 350.4 447.0 314.1C443.4 311.1 427.7 295.9 412.0 280.5C396.3 265.1 379.9 249.6 375.5 246.1C347.2 223.4 319.3 211.3 281.8 205.3C273.5 204.0 259.4 203.6 208.0 203.0C157.5 202.5 143.7 202.1 140.6 201.0C135.1 199.0 127.1 191.4 124.4 185.5C117.8 171.4 124.6 153.3 138.9 146.6C143.4 144.5 144.3 144.5 209.0 144.5C281.0 144.5 284.2 144.7 308.1 150.6C340.8 158.6 369.4 171.1 394.4 188.5C412.9 201.2 422.5 209.8 454.0 241.6C468.6 256.3 483.5 270.7 487.1 273.6C509.2 291.2 532.4 301.8 560.0 306.6C569.2 308.3 576.6 308.5 620.5 308.6C675.0 308.6 677.2 308.8 701.3 314.9C732.9 322.9 755.3 335.4 777.0 357.0C798.8 378.6 813.8 406.6 819.9 436.7C822.1 447.3 822.7 461.5 821.0 462.5C819.1 463.7 811.3 459.1 798.6 449.1C770.6 427.2 748.7 416.4 725.1 413.0C714.8 411.4 692.4 412.2 682.3 414.5C664.0 418.5 643.5 427.8 621.5 442.0C586.7 464.5 565.2 476.1 547.1 482.1C527.0 488.7 518.4 490.1 495.5 490.6C476.4 490.9 473.5 490.8 463.5 488.7ZM929.0 487.3C920.7 486.4 907.8 482.5 898.5 478.1C874.0 466.4 857.8 448.4 849.5 423.6C845.6 411.9 845.7 410.2 850.9 407.5C853.7 406.1 877.3 398.9 893.2 394.6C904.2 391.7 905.4 392.3 911.0 403.7C916.1 413.9 917.6 416.0 923.7 420.2C930.0 424.5 935.6 426.1 944.0 426.1C957.4 426.0 968.1 418.7 973.2 406.1L975.5 400.5L976.0 283.3C976.3 218.9 976.9 165.8 977.3 165.3C978.6 164.0 1038.6 163.7 1041.0 165.0C1043.1 166.1 1043.1 166.2 1042.8 288.3L1042.5 410.5L1039.8 420.1C1035.5 435.7 1029.4 446.5 1018.1 458.4C999.5 477.8 972.7 488.2 942.5 487.8C937.0 487.7 930.9 487.5 929.0 487.3ZM1174.0 487.4C1172.6 487.2 1168.1 486.5 1164.0 485.9C1145.9 483.3 1120.9 472.2 1105.9 460.2C1076.9 437.0 1061.0 403.8 1061.0 366.3C1061.0 310.9 1098.5 264.3 1154.6 250.1C1172.5 245.6 1198.8 244.9 1216.2 248.5C1242.7 254.0 1266.9 267.0 1284.6 285.2C1299.8 300.8 1308.3 315.9 1314.1 337.5C1317.1 348.7 1317.3 350.6 1317.3 366.0C1317.3 377.9 1316.9 384.6 1315.6 389.9C1310.2 413.8 1300.8 431.4 1283.6 449.8C1265.7 468.9 1237.1 482.9 1207.7 486.9C1200.4 487.9 1179.7 488.2 1174.0 487.4ZM1645.4 486.6C1627.8 483.3 1609.9 475.5 1600.9 467.3L1598.3 464.9L1597.6 474.2C1597.2 479.3 1596.4 484.0 1595.8 484.7C1594.3 486.6 1535.2 486.6 1532.7 484.7C1531.0 483.6 1530.9 473.9 1531.0 323.5C1531.0 214.8 1531.4 163.2 1532.1 162.5C1533.5 161.1 1595.5 161.1 1596.9 162.5C1597.6 163.2 1598.0 182.0 1598.0 217.3C1598.1 249.9 1598.5 271.0 1599.0 271.0C1599.5 271.0 1603.2 268.5 1607.2 265.4C1616.2 258.5 1629.9 251.8 1641.0 249.0C1659.5 244.3 1686.9 245.6 1706.2 252.0C1732.0 260.6 1756.4 279.0 1769.8 300.0C1775.8 309.3 1782.7 325.0 1785.5 336.0C1788.8 348.7 1790.0 371.2 1788.1 385.5C1783.8 417.5 1763.9 448.7 1736.0 467.2C1721.4 476.8 1711.5 481.0 1693.8 485.1C1682.0 487.8 1656.1 488.6 1645.4 486.6ZM1902.0 486.9C1871.6 482.3 1843.4 465.4 1824.9 440.7C1797.4 403.8 1793.5 351.0 1815.2 308.6C1828.6 282.6 1853.7 261.2 1882.1 251.6C1900.1 245.5 1925.4 244.4 1942.5 248.9C1952.4 251.5 1968.5 259.4 1976.5 265.5L1982.5 270.0L1982.7 266.8C1983.5 257.1 1984.3 252.8 1985.6 251.5C1986.9 250.2 1991.8 250.0 2017.4 250.0C2044.4 250.0 2047.9 250.2 2049.1 251.7C2050.3 253.0 2050.5 272.4 2050.7 367.4C2050.9 467.4 2050.8 481.7 2049.5 483.7L2048.0 486.0L2018.1 486.0C1982.5 486.0 1985.0 487.0 1985.0 473.2C1985.0 468.1 1984.8 464.0 1984.5 464.0C1984.2 464.0 1980.5 466.4 1976.2 469.4C1962.7 478.8 1950.8 483.8 1935.4 486.5C1926.2 488.1 1911.1 488.3 1902.0 486.9ZM1339.6 484.4C1338.2 483.0 1338.0 467.1 1338.0 324.5C1338.0 168.9 1338.0 166.1 1339.9 165.0C1341.1 164.4 1353.1 164.0 1371.9 164.0C1397.8 164.0 1402.1 164.2 1403.4 165.6C1404.8 167.0 1405.0 182.8 1405.0 325.0C1405.0 467.2 1404.8 483.0 1403.4 484.4C1402.1 485.8 1397.8 486.0 1371.5 486.0C1345.2 486.0 1340.9 485.8 1339.6 484.4ZM1436.9 484.3C1435.7 483.0 1435.5 463.7 1435.2 369.9C1435.0 268.1 1435.1 257.0 1436.6 255.6C1437.8 254.3 1440.8 254.0 1451.3 253.8C1474.6 253.6 1501.1 253.9 1502.0 254.5C1502.6 254.9 1503.0 297.4 1503.0 369.0C1503.0 471.2 1502.8 483.0 1501.4 484.4C1500.1 485.8 1495.7 486.0 1469.1 486.0C1441.6 486.0 1438.1 485.8 1436.9 484.3ZM1203.3 425.1C1212.4 422.7 1216.6 420.7 1224.5 414.7C1250.9 394.7 1255.6 355.7 1235.0 328.3C1220.5 309.1 1191.3 300.8 1168.7 309.4C1144.1 318.7 1129.0 340.7 1129.0 366.9C1129.0 390.0 1141.7 410.6 1162.3 421.2C1173.4 426.8 1190.2 428.4 1203.3 425.1ZM1673.3 425.5C1680.4 423.7 1690.0 418.9 1696.3 414.2C1705.4 407.3 1714.4 393.4 1717.5 381.3C1719.4 374.1 1719.4 358.2 1717.6 351.3C1713.1 334.3 1702.1 320.7 1685.9 312.0C1672.1 304.7 1651.9 303.9 1636.2 310.3C1612.8 319.7 1598.0 341.4 1598.0 366.1C1598.0 376.8 1599.5 383.1 1604.3 392.9C1612.0 408.7 1626.4 420.6 1643.0 424.9C1652.1 427.3 1665.4 427.6 1673.3 425.5ZM1937.2 425.9C1940.1 425.2 1946.1 423.0 1950.6 420.9C1964.5 414.3 1975.0 402.1 1980.7 385.8C1984.4 375.5 1984.5 359.8 1981.2 349.0C1977.6 337.6 1973.2 330.2 1965.8 322.9C1950.9 308.2 1930.7 302.6 1911.8 307.9C1885.8 315.0 1867.2 342.6 1869.4 370.7C1870.1 379.8 1871.7 385.6 1876.1 394.4C1888.0 417.9 1913.3 431.0 1937.2 425.9ZM484.9 417.5C465.3 414.3 447.7 405.8 429.0 390.6C424.9 387.3 413.9 377.4 404.7 368.7C385.0 350.2 376.5 343.3 363.8 335.4C341.2 321.4 319.0 313.7 287.5 308.9C281.9 308.0 259.2 307.6 212.3 307.4C136.7 307.2 138.7 307.4 131.0 299.9C125.0 294.1 122.0 287.1 122.0 278.9C122.0 266.2 127.3 257.4 138.3 252.1L144.5 249.1L202.0 248.5C264.6 248.0 281.7 248.6 304.5 252.5C342.3 259.0 376.5 274.9 407.5 300.4C412.6 304.6 424.9 316.0 434.7 325.7C473.5 364.1 486.1 373.3 511.7 382.6C526.5 387.9 540.6 390.2 561.9 390.6C572.0 390.7 580.4 391.0 580.6 391.2C581.2 391.9 570.5 398.4 560.1 403.7C535.9 416.0 507.5 421.2 484.9 417.5ZM1459.4 239.7C1452.4 237.9 1446.0 233.9 1441.0 228.3C1434.6 221.1 1432.7 216.1 1432.2 205.2C1431.8 196.1 1431.8 195.7 1435.4 188.5C1439.7 179.7 1446.7 173.1 1455.0 169.8C1463.4 166.5 1476.5 166.7 1484.5 170.4C1492.4 173.9 1500.1 181.6 1503.7 189.4C1506.1 194.6 1506.4 196.8 1506.4 204.5C1506.4 212.4 1506.1 214.2 1503.5 219.3C1500.0 226.4 1491.8 234.3 1484.5 237.6C1477.8 240.7 1466.9 241.6 1459.4 239.7Z"/></svg>
